<!DOCTYPE svg PUBLIC "-//W3C//DTD SVG 20010904//EN" "http://www.w3.org/TR/2001/REC-SVG-20010904/DTD/svg10.dtd">
<svg version="1.0" xmlns="http://www.w3.org/2000/svg" width="900px" height="600px" viewBox="0 0 9000 6000" preserveAspectRatio="xMidYMid meet">
<g id="layer101" fill="#00b5ff" stroke="none">
<path d="M5610 4296 c-102 -29 -188 -95 -230 -175 -45 -89 -50 -137 -50 -468 l0 -313 89 0 90 0 3 318 c3 315 3 317 28 366 34 68 82 104 156 118 122 22 223 -23 268 -122 20 -42 21 -66 24 -362 l3 -318 90 0 89 0 0 308 c0 240 -4 321 -16 372 -33 143 -127 238 -269 276 -62 17 -215 17 -275 0z"/>
<path d="M210 3820 l0 -481 293 3 c274 3 295 5 347 26 63 25 122 79 145 134 35 84 9 199 -60 263 l-34 33 48 30 c68 41 102 103 109 192 8 121 -46 203 -170 253 -50 20 -72 22 -365 25 l-313 3 0 -481z m573 316 c51 -19 75 -42 88 -85 17 -58 -6 -110 -61 -141 -43 -23 -55 -25 -232 -28 l-188 -4 0 136 0 136 178 0 c123 -1 189 -5 215 -14z m-73 -407 c95 -20 138 -86 107 -162 -27 -62 -57 -71 -254 -75 l-173 -4 0 126 0 126 135 0 c73 0 157 -5 185 -11z"/>
<path d="M2890 3820 l0 -480 90 0 90 0 0 405 0 405 250 0 250 0 0 75 0 75 -340 0 -340 0 0 -480z"/>
<path d="M8060 3820 l0 -480 350 0 350 0 0 75 0 75 -260 0 -260 0 0 125 0 125 230 0 230 0 0 75 0 75 -230 0 -230 0 0 130 0 130 270 0 270 0 0 75 0 75 -360 0 -360 0 0 -480z"/>
</g>
<g id="layer102" fill="#fffefe" stroke="none">
<path d="M5913 2656 c-88 -22 -164 -66 -234 -135 -99 -100 -139 -196 -139 -341 0 -145 40 -241 139 -341 103 -103 221 -149 381 -149 141 0 276 48 351 126 l33 34 -56 57 -56 56 -33 -27 c-176 -148 -460 -91 -552 113 -33 72 -30 198 6 273 79 162 288 231 470 154 l37 -15 0 -145 0 -146 85 0 85 0 0 188 c0 168 -2 191 -18 205 -26 24 -140 74 -207 92 -70 18 -218 19 -292 1z"/>
<path d="M180 2180 l0 -480 74 0 74 0 188 315 c125 210 190 311 196 303 4 -7 88 -149 185 -315 l177 -303 78 0 78 0 0 480 0 480 -90 0 -90 0 -2 -307 -3 -308 -150 253 -150 253 -44 -3 -45 -3 -150 -248 -151 -247 -3 305 -2 305 -85 0 -85 0 0 -480z"/>
<path d="M1690 2180 l0 -480 90 0 90 0 0 480 0 480 -90 0 -90 0 0 -480z"/>
<path d="M2330 2180 l0 -480 253 0 c286 0 337 8 449 67 150 79 238 231 238 413 0 182 -88 334 -238 413 -112 59 -163 67 -449 67 l-253 0 0 -480z m582 292 c117 -58 172 -150 172 -293 0 -77 -3 -93 -32 -152 -37 -74 -72 -109 -152 -146 -51 -24 -67 -26 -222 -29 l-168 -4 0 332 0 332 168 -4 c166 -3 168 -3 234 -36z"/>
<path d="M3660 2180 l0 -480 74 0 74 0 259 319 258 319 3 -319 2 -319 90 0 90 0 0 480 0 480 -77 -1 -78 0 -255 -316 -255 -316 -3 317 -2 316 -90 0 -90 0 0 -480z"/>
<path d="M4970 2180 l0 -480 90 0 90 0 0 480 0 480 -90 0 -90 0 0 -480z"/>
<path d="M6870 2180 l0 -480 90 0 90 0 0 200 0 200 245 0 245 0 0 -200 0 -200 90 0 90 0 0 480 0 480 -90 0 -90 0 0 -205 0 -205 -245 0 -245 0 0 205 0 205 -90 0 -90 0 0 -480z"/>
<path d="M8380 2255 l0 -405 -160 0 -160 0 0 -75 0 -75 410 0 410 0 0 75 0 75 -160 0 -160 0 0 405 0 405 -90 0 -90 0 0 -405z"/>
</g>


</svg>